# xmcd
#
# Track frame offsets:
#       150
#       18192
#       36442
#       53895
#       67887
#       79975
#       98832
#       114810
#       131220
#       149997
#       163837
#       179302
#       197760
#       218262
#       240682
#       259370
#       279357
#       306127
#
# Disc length: 4334 seconds
#
# Revision: 0
# Processed by: cddbd v1.5.1PL0 Copyright (c) Steve Scherf et al.
# Submitted via: CD-DA_X-Tractor v0.23
#
DISCID=0610ec12
DTITLE=Clifton Jansky - Get off the Fence
DYEAR=2002
DGENRE=Christian
TTITLE0=Get Off the Fence
TTITLE1=God's Way
TTITLE2=Wise Too Late and Old Too Soon
TTITLE3=I'm Goin' On With God
TTITLE4=Set Your Feet on Higher Ground
TTITLE5=There's a Hand (Guiding Me)
TTITLE6=Personal Challenge
TTITLE7=With This Ring
TTITLE8=I Choose Jesus
TTITLE9=The Shape I'm In
TTITLE10=How Can I Be Sure
TTITLE11=Eighteen Inches From Heaven
TTITLE12=Personal Commitment
TTITLE13=It Is Well With My Soul
TTITLE14=Forever Grateful
TTITLE15=Jesus In Me
TTITLE16=How Great Thou Art
TTITLE17=If You Can Hear Me Now
EXTD=
EXTT0=
EXTT1=
EXTT2=
EXTT3=
EXTT4=
EXTT5=
EXTT6=
EXTT7=
EXTT8=
EXTT9=
EXTT10=
EXTT11=
EXTT12=
EXTT13=
EXTT14=
EXTT15=
EXTT16=
EXTT17=
PLAYORDER=
